<svg width="32" height="32" viewBox="0 0 32 32" fill="none" xmlns="http://www.w3.org/2000/svg">
<path d="M29.3333 16C29.3333 23.3638 23.3638 29.3334 16 29.3334M29.3333 16C29.3333 8.63622 23.3638 2.66669 16 2.66669M29.3333 16H2.66667M16 29.3334C8.63621 29.3334 2.66667 23.3638 2.66667 16M16 29.3334C19.335 25.6822 21.2303 20.944 21.3333 16C21.2303 11.0561 19.335 6.31782 16 2.66669M16 29.3334C12.665 25.6822 10.7697 20.944 10.6667 16C10.7697 11.0561 12.665 6.31782 16 2.66669M2.66667 16C2.66667 8.63622 8.63621 2.66669 16 2.66669" stroke="#E8E9E9" stroke-width="2" stroke-linecap="round" stroke-linejoin="round"/>
</svg>
