<svg width="32" height="32" viewBox="0 0 32 32" fill="none" xmlns="http://www.w3.org/2000/svg">
<path d="M18.6667 2.66667H8.00001C7.29277 2.66667 6.61449 2.94762 6.11439 3.44772C5.61429 3.94782 5.33334 4.62609 5.33334 5.33334V26.6667C5.33334 27.3739 5.61429 28.0522 6.11439 28.5523C6.61449 29.0524 7.29277 29.3333 8.00001 29.3333H24C24.7073 29.3333 25.3855 29.0524 25.8856 28.5523C26.3857 28.0522 26.6667 27.3739 26.6667 26.6667V10.6667M18.6667 2.66667L26.6667 10.6667M18.6667 2.66667V10.6667H26.6667M21.3333 17.3333H10.6667M21.3333 22.6667H10.6667M13.3333 12H10.6667" stroke="#E8E9E9" stroke-width="2" stroke-linecap="round" stroke-linejoin="round"/>
</svg>
